<?xml version="1.0" encoding="UTF-8"?>
<svg id="Calque_1" xmlns="http://www.w3.org/2000/svg" version="1.1" viewBox="0 0 841.9 63.8">
  <!-- Generator: Adobe Illustrator 29.0.1, SVG Export Plug-In . SVG Version: 2.1.0 Build 192)  -->
  <defs>
    <style>
      .st0 {
        fill: #1d1d1b;
      }
    </style>
  </defs>
  <path class="st0" d="M33.4,17.6v-.6h12.8v.7h-.9c-1.4,0-3.3.1-2.4,2.3l7.8,18.9,7.3-18.2c1.1-2.8-1.3-3-2.8-3h-2.5v-.7h12.2v.6c-2.9,0-4.7,0-5.7,2.6l-8.6,21.6h-2.7l-6.1-14.1-6.5,14.1h-2.5l-10.2-22c-1-2.2-2.8-2.3-4.9-2.3v-.6h12.8v.7h-.9c-1.4,0-3.3.1-2.4,2.3l8.5,18.9,5.7-12.4-2.9-6.6c-.9-2.2-2.8-2.3-4.9-2.3Z"/>
  <path class="st0" d="M62.1,29.3c0-8,7.5-13,15.1-13s15.1,5,15.1,13-7.5,13.1-15.1,13.1-15.1-5.1-15.1-13.1ZM77.3,41.5c6.5,0,10.8-5.3,10.8-12.2s-4.4-12.1-10.8-12.1-10.9,5.3-10.9,12.1,4.4,12.2,10.9,12.2Z"/>
  <path class="st0" d="M106.1,41.2v.6h-12.5v-.6c2.3,0,4.4-.1,4.4-2.8v-18c0-2.7-2.1-2.8-4.4-2.8v-.6h15.6c5.9,0,10.2,2.6,10.2,6.7s-4.3,6.7-10.2,6.7h-2.9c4.6,1.1,9.9,4.6,12.7,10.4,3.4,7.1,6.2,12.1,10.8,12.1s4.5-2.2,4.5-2.6-.2-.8-.6-.9l.4-.5,2.3,1.5c-.8,1.5-3.1,3.1-6.7,3.1s-10.8-3.3-14.7-11.3c-5.7-11.6-9-11.8-13.1-11.8h-.2v8c0,2.7,2.1,2.8,4.4,2.8ZM108.5,29.8c4.5,0,6.9-2.4,6.9-6.1s-2.5-6.1-6.9-6.1h-2.4c-2.3,0-4.4.1-4.4,2.8v9.4h6.8Z"/>
  <path class="st0" d="M124.7,41.2c2.3,0,4.4-.1,4.4-2.8v-18c0-2.7-2.1-2.8-4.4-2.8v-.6h13.3c6.4,0,14.5,2.6,14.5,12.4s-7.6,12.4-14,12.4h-13.8v-.6ZM136.7,41.2h1c4.9,0,10.7-2.4,10.7-11.8s-6.2-11.8-11.2-11.8h-.5c-1.8,0-4,.1-4,2.8v18c0,2.7,2.1,2.8,4,2.8Z"/>
  <path class="st0" d="M178.8,34.4c0,4.9-4,8.1-11,8.1s-8.1-.7-12.3-3.1v-3.6h.5c2,4.7,8.1,5.7,11.8,5.7,6.4,0,7.8-3.1,7.8-5.7,0-9.2-18.7-4.8-18.7-13.7s4.7-5.8,9.2-5.8,6.4.9,9.4.9c0,1.4.3,2.8.8,4.2h-.7c-1.2-2.8-4.6-4.2-8.9-4.2s-6.5,1.8-6.5,3.7c0,6.6,18.4,2.9,18.4,13.4Z"/>
  <path class="st0" d="M187.6,39.8c0,1.4-.5,3.2-3.8,6.6h0c2-2.5,1.9-3.1.8-4.1-.8-.8-1.5-1.5-1.5-2.7s.9-2.5,2.3-2.5,2.2.7,2.2,2.6Z"/>
  <path class="st0" d="M227.6,34.4c0,4.9-4,8.1-11,8.1s-8.1-.7-12.3-3.1v-3.6h.5c2,4.7,8.1,5.7,11.8,5.7,6.4,0,7.8-3.1,7.8-5.7,0-9.2-18.7-4.8-18.7-13.7s4.7-5.8,9.2-5.8,6.4.9,9.4.9c0,1.4.3,2.8.8,4.2h-.7c-1.2-2.8-4.6-4.2-8.9-4.2s-6.5,1.8-6.5,3.7c0,6.6,18.4,2.9,18.4,13.4Z"/>
  <path class="st0" d="M231.4,29.3c0-8,7.5-13,15.1-13s15.1,5,15.1,13-7.5,13.1-15.1,13.1-15.1-5.1-15.1-13.1ZM246.5,41.5c6.5,0,10.8-5.3,10.8-12.2s-4.4-12.1-10.8-12.1-10.9,5.3-10.9,12.1,4.4,12.2,10.9,12.2Z"/>
  <path class="st0" d="M284.6,17.6v-.6h9.8v.6c-2.3,0-4.4.1-4.4,2.8v10.8c0,8.4-4.4,11.3-11.4,11.3s-11.4-2.8-11.4-10.3v-11.7c0-2.7-2.1-2.8-4.4-2.8v-.6h12.5v.6c-2.3,0-4.4.1-4.4,2.8v11.2c0,6.7,1.2,10,8,10s10.2-2.7,10.2-10.4v-10.8c0-2.7-2.1-2.8-4.4-2.8Z"/>
  <path class="st0" d="M315.9,17.5v-.6h9.8v.6c-2.3,0-4.4.1-4.4,2.8v21.4h-.9l-19.6-21.5h0v18.1c0,2.7,2.1,2.8,4.4,2.8v.6h-9.8v-.6c2.3,0,4.4-.1,4.4-2.8v-18c0-2.7-2.1-2.8-4.4-2.8v-.6h7.6l17.4,18.9v-15.6c0-2.7-2.1-2.8-4.4-2.8Z"/>
  <path class="st0" d="M326.2,41.2c2.3,0,4.4-.1,4.4-2.8v-18c0-2.7-2.1-2.8-4.4-2.8v-.6h13.3c6.4,0,14.5,2.6,14.5,12.4s-7.6,12.4-14,12.4h-13.8v-.6ZM338.2,41.2h1c4.9,0,10.7-2.4,10.7-11.8s-6.2-11.8-11.2-11.8h-.5c-1.8,0-4,.1-4,2.8v18c0,2.7,2.1,2.8,4,2.8Z"/>
  <path class="st0" d="M380.3,34.4c0,4.9-4,8.1-11,8.1s-8.1-.7-12.3-3.1v-3.6h.5c2,4.7,8.1,5.7,11.8,5.7,6.4,0,7.8-3.1,7.8-5.7,0-9.2-18.7-4.8-18.7-13.7s4.7-5.8,9.2-5.8,6.4.9,9.4.9c0,1.4.3,2.8.8,4.2h-.7c-1.2-2.8-4.6-4.2-8.9-4.2s-6.5,1.8-6.5,3.7c0,6.6,18.4,2.9,18.4,13.4Z"/>
  <path class="st0" d="M389.1,39.8c0,1.4-.5,3.2-3.8,6.6h0c2-2.5,1.9-3.1.8-4.1-.8-.8-1.5-1.5-1.5-2.7s.9-2.5,2.3-2.5,2.2.7,2.2,2.6Z"/>
  <path class="st0" d="M410.7,29.3c0,6.8,3.4,12.3,10.5,12.3s10.2-2.1,12.7-6.8h.9c-.8,2-1.2,4-1.2,5.9h-.4c-.6-.7-1.2-1.2-1.8-1.5-2.8,2.3-6.4,3.3-10.2,3.3-8.1,0-14.7-5.1-14.7-13.1s7.5-13,15.1-13,8.1,2.1,10.6,2.1c0,1.4.3,2.8.7,4.2h-.7c-1.6-3.3-5.9-5.4-10.1-5.4-7.4,0-11.4,5.3-11.4,12.1Z"/>
  <path class="st0" d="M439.5,29.3c0-8,7.5-13,15.1-13s15.1,5,15.1,13-7.5,13.1-15.1,13.1-15.1-5.1-15.1-13.1ZM454.6,41.5c6.5,0,10.8-5.3,10.8-12.2s-4.4-12.1-10.8-12.1-10.9,5.3-10.9,12.1,4.4,12.2,10.9,12.2Z"/>
  <path class="st0" d="M479,20.4v18c0,2.7,2,2.8,5.2,2.8,9.1,0,11.3-4.3,13.6-9.3h.4l-2.4,9.8h-25v-.6c2.3,0,4.4-.1,4.4-2.8v-18c0-2.7-2.1-2.8-4.4-2.8v-.6h12.5v.6c-2.3,0-4.4.1-4.4,2.8Z"/>
  <path class="st0" d="M499.9,29.3c0-8,7.5-13,15.1-13s15.1,5,15.1,13-7.5,13.1-15.1,13.1-15.1-5.1-15.1-13.1ZM515,41.5c6.5,0,10.8-5.3,10.8-12.2s-4.4-12.1-10.8-12.1-10.9,5.3-10.9,12.1,4.4,12.2,10.9,12.2Z"/>
  <path class="st0" d="M543.8,41.2v.6h-12.5v-.6c2.3,0,4.4-.1,4.4-2.8v-18c0-2.7-2.1-2.8-4.4-2.8v-.6h15.6c5.9,0,10.2,2.6,10.2,6.7s-4.3,6.7-10.2,6.7h-2.9c4.6,1.1,9.9,4.6,12.7,10.4,3.4,7.1,6.2,12.1,10.8,12.1s4.5-2.2,4.5-2.6-.2-.8-.6-.9l.4-.5,2.3,1.5c-.8,1.5-3.1,3.1-6.7,3.1s-10.8-3.3-14.7-11.3c-5.7-11.6-9-11.8-13.1-11.8h-.2v8c0,2.7,2.1,2.8,4.4,2.8ZM546.2,29.8c4.5,0,6.9-2.4,6.9-6.1s-2.5-6.1-6.9-6.1h-2.4c-2.3,0-4.4.1-4.4,2.8v9.4h6.8Z"/>
  <path class="st0" d="M586,34.4c0,4.9-4,8.1-11,8.1s-8.1-.7-12.3-3.1v-3.6h.5c2,4.7,8.1,5.7,11.8,5.7,6.4,0,7.8-3.1,7.8-5.7,0-9.2-18.7-4.8-18.7-13.7s4.7-5.8,9.2-5.8,6.4.9,9.4.9c0,1.4.3,2.8.8,4.2h-.7c-1.2-2.8-4.6-4.2-8.9-4.2s-6.5,1.8-6.5,3.7c0,6.6,18.4,2.9,18.4,13.4Z"/>
  <path class="st0" d="M603.9,35.5c0-5,4.8-5.9,10-7-5-1.1-8.8-2.5-8.8-6.1s5.2-6,10.1-6,3.7.4,5.1,1.1l3.3-1.1h0v10.4h-.2c-.6-7.4-3.5-9.5-8.2-9.5s-5.9,2.6-5.9,5.2,1.9,4.7,5.9,5.6v1.2c-4,.9-7.1,1.4-7.1,6.4s1.6,6.1,6.9,6.1,7.8-3.4,7.8-8.8c-2.4-1.3-3.7-4.1-4.3-6.5h.4c1,2.1,2.9,4.2,6.8,4.9,1.2.2,4,.4,5.3-.5h.1c-.5.8-2.3,2-4.1,2.6-.4,6.1-5.9,9.1-12.1,9.1s-11.1-3.3-11.1-7Z"/>
  <path class="st0" d="M669.7,34.4c0,4.9-4,8.1-11,8.1s-8.1-.7-12.3-3.1v-3.6h.5c2,4.7,8.1,5.7,11.8,5.7,6.4,0,7.8-3.1,7.8-5.7,0-9.2-18.7-4.8-18.7-13.7s4.7-5.8,9.2-5.8,6.4.9,9.4.9c0,1.4.3,2.8.8,4.2h-.7c-1.2-2.8-4.6-4.2-8.9-4.2s-6.5,1.8-6.5,3.7c0,6.6,18.4,2.9,18.4,13.4Z"/>
  <path class="st0" d="M684.4,41.2v.6h-12.5v-.6c2.3,0,4.4-.1,4.4-2.8v-18c0-2.7-2.1-2.8-4.4-2.8v-.6h12.5v.6c-2.3,0-4.4.1-4.4,2.8v6.2h15.2v-6.2c0-2.7-2.1-2.8-4.4-2.8v-.6h12.5v.6c-2.3,0-4.4.1-4.4,2.8v18c0,2.7,2.1,2.8,4.4,2.8v.6h-12.5v-.6c2.3,0,4.4-.1,4.4-2.8v-10.8h-15.2v10.8c0,2.7,2.1,2.8,4.4,2.8Z"/>
  <path class="st0" d="M724.9,41.1h.9c1.5,0,3.4,0,2.2-2.7h0l-2.8-6.6h-11.2l-2.9,6.4h0c-1.3,2.8,1,3,2.5,3h2.5v.7h-12.2v-.6c2.7,0,4.4-.1,5.6-2.2l9.4-21.2c-.9,0-2,0-2.7-.3v-.3c1.4,0,2.6-.2,4-1.1s2.1-1.7,2.6-2.8h.3c-.1,1-.4,1.7-.7,2.3l10.5,23.6c1.2,1.9,2.7,2,4.8,2v.6h-13.1v-.7ZM724.9,30.8l-5.1-11.8-5.3,11.8h10.4Z"/>
  <path class="st0" d="M750.9,41.2v.6h-12.5v-.6c2.3,0,4.4-.1,4.4-2.8v-18c0-2.7-2.1-2.8-4.4-2.8v-.6h13.8c5.9,0,10.2,2.6,10.2,6.7s-4.3,6.7-10.2,6.7h-5.7v8c0,2.7,2.1,2.8,4.4,2.8ZM751.4,29.8c4.5,0,6.9-2.4,6.9-6.1s-2.5-6.1-6.9-6.1h-2.4c-2.3,0-2.5.1-2.5,2.8v9.4h4.9Z"/>
  <path class="st0" d="M791,31.9h.4l-2.4,9.8h-26.2v-.6c2.3,0,4.4-.1,4.4-2.8v-18c0-2.7-2.1-2.8-4.4-2.8v-.6h23.8l2.4,9.8h-.4c-2.3-5-4.5-9.3-11.3-9.3s-6.4,0-6.4,2.8v6.7h6.4c3.2,0,5.2-2.1,5.7-4.4h.6l-1.9,9.8h-.6c0-2.3-.6-4.4-3.8-4.4h-6.4v10.4c0,2.7,1.9,2.8,7.4,2.8,8.2,0,10.4-4.3,12.7-9.3Z"/>
  <path class="st0" d="M817.3,34.4c0,4.9-4,8.1-11,8.1s-8.1-.7-12.3-3.1v-3.6h.5c2,4.7,8.1,5.7,11.8,5.7,6.4,0,7.8-3.1,7.8-5.7,0-9.2-18.7-4.8-18.7-13.7s4.7-5.8,9.2-5.8,6.4.9,9.4.9c0,1.4.3,2.8.8,4.2h-.7c-1.2-2.8-4.6-4.2-8.9-4.2s-6.5,1.8-6.5,3.7c0,6.6,18.4,2.9,18.4,13.4Z"/>
  <path class="st0" d="M821.1,39.5c0-1.5,1.2-2.7,2.7-2.7s2.7,1.2,2.7,2.7-1.2,2.7-2.7,2.7-2.7-1.2-2.7-2.7Z"/>
</svg>